<svg xmlns="http://www.w3.org/2000/svg" viewBox="0 0 112.3 112.3">
  <path d="M98.24 85.45a21.1 21.1 0 0 1 5.7 3.1 21.47 21.47 0 0 1 4.45 4.57 21.9 21.9 0 0 1 2.86 5.7 20.25 20.25 0 0 1 1 6.46v7H0v-7a20.32 20.32 0 0 1 1-6.42 22.7 22.7 0 0 1 2.83-5.74 21.47 21.47 0 0 1 4.47-4.57 21.1 21.1 0 0 1 5.7-3.1V17.53a16.9 16.9 0 0 1 1.4-6.8 17.37 17.37 0 0 1 3.77-5.55 18 18 0 0 1 5.6-3.78 16.9 16.9 0 0 1 6.8-1.4h49.1a16.9 16.9 0 0 1 6.83 1.4 17.37 17.37 0 0 1 5.54 3.77 17.37 17.37 0 0 1 3.78 5.54 16.9 16.9 0 0 1 1.4 6.83v67.93zM21 77.7v14.06h70.26V77.7H21zM46.6 7.53h-14v66.65h14V7.53zm-14 98.24h14v-10.5h-14v10.5z"/>
  <path d="M31.6 7.53h14v98.24h-14z"/>
  <path fill="#383838" d="M105.3 105.27v.52H7v-.53a13.3 13.3 0 0 1 .67-4.28 15.87 15.87 0 0 1 1.92-3.93 14.6 14.6 0 0 1 3-3 14.36 14.36 0 0 1 1.47-1 11.6 11.6 0 0 1 3.3-1.08 27.48 27.48 0 0 1 3.62-.25V17.53a10 10 0 0 1 .8-4 10.2 10.2 0 0 1 2.27-3.33c.16-.17.33-.33.5-.48a8.47 8.47 0 0 1 3-1.8 22.85 22.85 0 0 1 4-.37H80.7a17.2 17.2 0 0 1 4 .28 7.56 7.56 0 0 1 3.35 2.26l.1.1a10.32 10.32 0 0 1 2.26 3.32 9.8 9.8 0 0 1 .83 4v74.23a25.13 25.13 0 0 1 4 .4 13.05 13.05 0 0 1 3 1 15.26 15.26 0 0 1 1.45 1 14.58 14.58 0 0 1 3 3.07 14.94 14.94 0 0 1 1.93 3.85 13.15 13.15 0 0 1 .7 4.2z"/>
  <path fill="#ffb900" d="M21.04 77.7h70.2v14.06h-70.2z"/>
  <path fill="#fff" d="M31.6 7.53h14v98.24h-14z" opacity=".52"/>
</svg>
