<svg id="Base" xmlns="http://www.w3.org/2000/svg" viewBox="0 0 112.3 112.3">
  <title>hat</title>
  <path d="M98.24,85.45a21.1,21.1,0,0,1,5.71,3.1,21.47,21.47,0,0,1,4.44,4.57,21.91,21.91,0,0,1,2.88,5.71,20.25,20.25,0,0,1,1,6.45v7H0v-7a20.32,20.32,0,0,1,1-6.42,22.71,22.71,0,0,1,2.83-5.74A21.47,21.47,0,0,1,8.3,88.55,21.1,21.1,0,0,1,14,85.45V17.53a16.89,16.89,0,0,1,1.39-6.81,17.37,17.37,0,0,1,3.78-5.54,18,18,0,0,1,5.59-3.78A16.89,16.89,0,0,1,31.59,0H80.71a16.89,16.89,0,0,1,6.81,1.39,17.37,17.37,0,0,1,5.54,3.78,17.37,17.37,0,0,1,3.78,5.54,16.89,16.89,0,0,1,1.39,6.81V85.45ZM21,77.7l0,14.06H91.26V77.7H21ZM46.61,7.53h-14V74.18h14V7.53Zm-14,98.24h14V95.28h-14v10.5Z"/>
  <rect x="31.59" y="7.53" width="14.01" height="98.24"/>
  <path d="M105.3,105.27v0.52l-59.69,0H7v-0.51A13.31,13.31,0,0,1,7.67,101a15.87,15.87,0,0,1,1.92-3.92,14.59,14.59,0,0,1,3-3,14.36,14.36,0,0,1,1.49-1A11.6,11.6,0,0,1,17.39,92,27.48,27.48,0,0,1,21,91.76V17.53a10,10,0,0,1,.81-4,10.19,10.19,0,0,1,2.27-3.33c0.16-.17.33-0.33,0.5-0.48a8.47,8.47,0,0,1,3-1.81,22.85,22.85,0,0,1,4-.36H80.71a17.2,17.2,0,0,1,4,.28,7.56,7.56,0,0,1,3.34,2.26l0.1,0.11a10.32,10.32,0,0,1,2.26,3.33,9.79,9.79,0,0,1,.81,4l0,74.23a25.13,25.13,0,0,1,4,.39,13.05,13.05,0,0,1,3,1,15.26,15.26,0,0,1,1.45,1,14.58,14.58,0,0,1,3,3.08,14.94,14.94,0,0,1,1.93,3.85A13.15,13.15,0,0,1,105.3,105.27Z" fill="#383838"/>
  <rect x="21.04" y="77.7" width="70.21" height="14.06" fill="#ffb900"/>
  <rect x="31.59" y="7.53" width="14.01" height="98.24" fill="#fff" opacity="0.52"/>
</svg>
