<svg style="position: absolute; width: 0; height: 0;" width="0" height="0" version="1.1" xmlns="http://www.w3.org/2000/svg" xmlns:xlink="http://www.w3.org/1999/xlink">
<defs>
<symbol id="logo-slack" viewBox="0 0 52 56">
<title>slack</title>
<path class="path1" d="M47.469 24.25q1.938 0 3.234 1.266t1.297 3.172q0 3.031-2.906 4.063l-5.375 1.844 1.75 5.219q0.219 0.656 0.219 1.469 0 1.844-1.313 3.188t-3.156 1.344q-1.469 0-2.672-0.844t-1.672-2.25l-1.719-5.156-9.688 3.312 1.719 5.125q0.25 0.75 0.25 1.469 0 1.844-1.313 3.188t-3.188 1.344q-1.469 0-2.656-0.844t-1.656-2.25l-1.719-5.094-4.781 1.656q-0.906 0.281-1.562 0.281-1.906 0-3.172-1.25t-1.266-3.156q0-1.469 0.859-2.656t2.234-1.656l4.875-1.656-3.281-9.781-4.875 1.687q-0.812 0.25-1.5 0.25-1.875 0-3.156-1.266t-1.281-3.141q0-1.469 0.859-2.656t2.234-1.656l4.906-1.656-1.656-4.969q-0.25-0.75-0.25-1.469 0-1.875 1.313-3.203t3.188-1.328q1.469 0 2.656 0.844t1.656 2.25l1.687 5 9.688-3.281-1.687-5q-0.25-0.75-0.25-1.469 0-1.844 1.328-3.188t3.172-1.344q1.469 0 2.672 0.859t1.672 2.234l1.656 5.031 5.062-1.719q0.656-0.188 1.344-0.188 1.875 0 3.203 1.234t1.328 3.078q0 1.406-0.938 2.547t-2.313 1.609l-4.906 1.687 3.281 9.875 5.125-1.75q0.75-0.25 1.438-0.25zM22.656 32.438l9.688-3.281-3.281-9.844-9.688 3.344z"/>
</symbol>
<symbol id="logo-discord" viewBox="0 0 245 240">
<title>discord</title>
<path class="st0" d="M104.4 103.9c-5.7 0-10.2 5-10.2 11.1s4.6 11.1 10.2 11.1c5.7 0 10.2-5 10.2-11.1.1-6.1-4.5-11.1-10.2-11.1zM140.9 103.9c-5.7 0-10.2 5-10.2 11.1s4.6 11.1 10.2 11.1c5.7 0 10.2-5 10.2-11.1s-4.5-11.1-10.2-11.1z"/><path class="st0" d="M189.5 20h-134C44.2 20 35 29.2 35 40.6v135.2c0 11.4 9.2 20.6 20.5 20.6h113.4l-5.3-18.5 12.8 11.9 12.1 11.2 21.5 19V40.6c0-11.4-9.2-20.6-20.5-20.6zm-38.6 130.6s-3.6-4.3-6.6-8.1c13.1-3.7 18.1-11.9 18.1-11.9-4.1 2.7-8 4.6-11.5 5.9-5 2.1-9.8 3.5-14.5 4.3-9.6 1.8-18.4 1.3-25.9-.1-5.7-1.1-10.6-2.7-14.7-4.3-2.3-.9-4.8-2-7.3-3.4-.3-.2-.6-.3-.9-.5-.2-.1-.3-.2-.4-.3-1.8-1-2.8-1.7-2.8-1.7s4.8 8 17.5 11.8c-3 3.8-6.7 8.3-6.7 8.3-22.1-.7-30.5-15.2-30.5-15.2 0-32.2 14.4-58.3 14.4-58.3 14.4-10.8 28.1-10.5 28.1-10.5l1 1.2c-18 5.2-26.3 13.1-26.3 13.1s2.2-1.2 5.9-2.9c10.7-4.7 19.2-6 22.7-6.3.6-.1 1.1-.2 1.7-.2 6.1-.8 13-1 20.2-.2 9.5 1.1 19.7 3.9 30.1 9.6 0 0-7.9-7.5-24.9-12.7l1.4-1.6s13.7-.3 28.1 10.5c0 0 14.4 26.1 14.4 58.3 0 0-8.5 14.5-30.6 15.2z"/>
</symbol>
<symbol id="logo-gitter" viewBox="0 0 245 240">
<title>gitter</title>
<path d="M83.914,62.873 L96.439,62.873 L96.439,145.534 L83.914,145.534 L83.914,62.873 Z M160.063,82.912 L172.587,82.912 L172.587,145.534 L160.063,145.534 L160.063,82.912 Z M109.464,82.912 L121.988,82.912 L121.988,193.378 L109.464,193.378 L109.464,82.912 Z M134.513,82.912 L147.038,82.912 L147.038,193.378 L134.513,193.378 L134.513,82.912 Z"/>
</symbol>
<symbol id="logo-flowdock" viewBox="0 0 300 300">
<title>flowdock</title>
<path d="M145.8 9.5c-.2.1-3.2.5-6.8.8C91.8 14.4 46.5 46.8 26.2 91c-8.9 19.4-12.7 36.9-12.6 59 0 24.8 4.2 42.7 14.7 63.5 21.1 42 64.2 71.6 110.7 76.2 16.8 1.7 33.2.6 49.3-3.3l6.7-1.6V197h82v-48.7l-38.7-.1c-21.4 0-39.8-.1-41-.1l-2.3-.1V99.5l45 .1 45.1.2-.7-2.2c-.6-2.2-6-13.2-8.5-17.6-.8-1.3-4.5-6.7-8.3-12-23.7-32.5-57.3-52.7-95.6-57.5-5.7-.7-25.6-1.5-26.2-1zM174 23.4c12.9 2.3 25.4 6.3 36.5 11.8 8 4 23.5 13.8 23.5 14.9 0 .3-17.7.6-39.2.7-50.6.1-51.6.1-62.8 2.2-44.8 8.5-80.9 42.2-92.8 86.5-2.8 10.6-3.4 15.5-3.7 31.1-.2 13.3 1.3 24.5 5 35.3 2.4 7 1.1 5.8-2.8-2.6-11.4-24.6-14.3-48.2-9.6-76.8C32.8 97.8 51 67.9 75 49.3c18.3-14.1 35.4-21.6 59.5-25.8 6.5-1.1 33.4-1.2 39.5-.1zm-31.8 44.3c.2 2.1.2 8.4 0 14l-.3 10.3h-2.6c-4.7 0-18.5 4.1-26.9 8-21.4 9.9-39.9 28.3-49.4 49.3-3.2 7.1-6.5 17.5-7.6 23.9-1 5.3-1.1 26.5-.2 33.3l.6 5-1.5-3.4c-3.9-9.2-6.6-24.8-6.6-38.1 0-50.2 36.4-94.7 85.3-104.5 9.1-1.8 8.8-1.9 9.2 2.2zm-.2 43.5c.3 72.4 0 165.2-.5 165.6-.9.9-14.1-2.6-22.1-5.9-7.5-3.1-20-11.4-26.2-17.3-5.5-5.2-13.9-16.7-17.6-24.2-3.7-7.5-7.2-18.7-8.3-26.9-2.7-19.6 2.2-42.2 12.8-58.5 3.5-5.4 5.4-7.8 12.6-15.6 3.9-4.3 15.3-12.4 22.2-15.8 7-3.5 20.7-8 25.9-8.5.8-.1 1.2 2 1.2 7.1z"/>
</symbol>
</defs>
</svg>
